<svg xmlns="http://www.w3.org/2000/svg" xmlns:xlink="http://www.w3.org/1999/xlink" version="1.1" x="0px" y="0px" viewBox="0 0 168.292 351.41125" enable-background="new 0 0 168.292 281.129" xml:space="preserve"><path d="M85.345,14.565c-41.833,0-75.746,33.912-75.746,75.745c0,63.254,75.477,175.766,75.746,175.756  c0.322-0.012,75.746-113.502,75.746-175.756C161.091,48.477,127.18,14.565,85.345,14.565z M85.738,153.538  c-34.991,0-63.356-28.364-63.356-63.354S50.747,26.83,85.738,26.83c34.99,0,63.354,28.364,63.354,63.354  C149.091,125.173,120.728,153.538,85.738,153.538z"/><polygon points="76.297,116.979 86.784,74.958 97.269,116.979 120.173,116.979 90.99,66.434 88.886,62.498 92.958,54.878   89.994,53.294 86.98,58.932 84.031,53.415 81.067,55 85.034,62.421 53.533,116.979 "/><rect x="43.146" y="119.507" width="84.053" height="6.724"/><text x="0" y="296.129" fill="#000000" font-size="5px" font-weight="bold" font-family="'Helvetica Neue', Helvetica, Arial-Unicode, Arial, Sans-serif">Created by corpus delicti</text><text x="0" y="301.129" fill="#000000" font-size="5px" font-weight="bold" font-family="'Helvetica Neue', Helvetica, Arial-Unicode, Arial, Sans-serif">from the Noun Project</text></svg>