<svg xmlns:x="http://ns.adobe.com/Extensibility/1.0/" xmlns:i="http://ns.adobe.com/AdobeIllustrator/10.0/" xmlns:graph="http://ns.adobe.com/Graphs/1.0/" xmlns="http://www.w3.org/2000/svg" xmlns:xlink="http://www.w3.org/1999/xlink" version="1.1" x="0px" y="0px" viewBox="0 0 70 87.5" style="enable-background:new 0 0 70 70;" xml:space="preserve"><metadata><?xpacket begin="&#65279;" id="W5M0MpCehiHzreSzNTczkc9d"?><x:xmpmeta xmlns:x="adobe:ns:meta/" x:xmptk="Adobe XMP Core 5.6-c145 79.163499, 2018/08/13-16:40:22        "/><?xpacket end="w"?></metadata><path d="M35,2C21.9853516,2,11.3974609,12.5878906,11.3974609,25.6025391c0,12.6806641,21.8828125,40.8212891,22.8144531,42.0136719  C34.4013672,67.8583984,34.6923828,68,35,68s0.5986328-0.1416016,0.7880859-0.3837891  c0.9316406-1.1923828,22.8144531-29.3330078,22.8144531-42.0136719C58.6025391,12.5878906,48.0146484,2,35,2z M35,65.3564453  c-3.9746094-5.2333984-21.6025391-29.0556641-21.6025391-39.7539062C13.3974609,13.6904297,23.0878906,4,35,4  s21.6025391,9.6904297,21.6025391,21.6025391C56.6025391,36.3007812,38.9746094,60.1230469,35,65.3564453z"/><path d="M35,7.4169922c-9.6337891,0-17.4716797,7.8378906-17.4716797,17.4716797S25.3662109,42.3603516,35,42.3603516  s17.4716797-7.8378906,17.4716797-17.4716797S44.6337891,7.4169922,35,7.4169922z M35,40.3603516  c-8.53125,0-15.4716797-6.9404297-15.4716797-15.4716797S26.46875,9.4169922,35,9.4169922  s15.4716797,6.9404297,15.4716797,15.4716797S43.53125,40.3603516,35,40.3603516z"/><path d="M35.875,14.8632812c-0.1767578-0.3134766-0.5097656-0.5078125-0.8701172-0.5078125  s-0.6923828,0.1933594-0.8701172,0.5068359l-8.4025269,14.8305054L24.0371094,27.75  c-0.3652344-0.4169922-0.9970703-0.4589844-1.4111328-0.0966797c-0.4160156,0.3632812-0.4589844,0.9951172-0.0966797,1.4111328  l2.6259766,3.0097656c0.0083618,0.0095825,0.0206909,0.0124512,0.0293579,0.0216675  c0.0792847,0.0835571,0.1715088,0.1503296,0.2732544,0.2019653c0.0383301,0.0195923,0.0756836,0.0335083,0.1157837,0.0479126  c0.0845947,0.0303955,0.1722412,0.0493164,0.2637329,0.0559692c0.0244751,0.0018311,0.0472412,0.0152588,0.0717773,0.0152588  c0.0111694,0,0.0219116-0.0054932,0.0330811-0.0058594h5.647583c0.359375,0,0.6914062-0.1933594,0.8691406-0.5058594  l2.5449219-4.4804688l2.5351562,4.4785156c0.1777344,0.3144531,0.5097656,0.5078125,0.8701172,0.5078125h5.6485596  c0.0111694,0.0003662,0.0219116,0.0058594,0.0330811,0.0058594c0.0250854,0,0.0483398-0.0136719,0.0733643-0.015564  c0.09021-0.0067749,0.1766968-0.0254517,0.2601929-0.0552979c0.0411987-0.0146484,0.0796509-0.0289917,0.1189575-0.0491943  c0.1002808-0.0512085,0.1914673-0.1171265,0.2698975-0.1994019c0.0093384-0.0098267,0.0224609-0.0130005,0.0314941-0.0233154  l2.6259766-3.0097656c0.3623047-0.4160156,0.3193359-1.0478516-0.0966797-1.4111328  C46.9589844,27.2919922,46.328125,27.3339844,45.9628906,27.75l-1.6955566,1.9433594L35.875,14.8632812z M38.9921875,30.4111328  L35.875,24.9052734c-0.1777344-0.3134766-0.5097656-0.5078125-0.8691406-0.5078125c-0.0009766,0-0.0009766,0-0.0009766,0  c-0.359375,0-0.6914062,0.1933594-0.8691406,0.5058594l-3.1279297,5.5078125h-3.3837891l7.3798828-13.0263672l7.3720703,13.0263672  H38.9921875z"/><text x="0" y="85" fill="#000000" font-size="5px" font-weight="bold" font-family="'Helvetica Neue', Helvetica, Arial-Unicode, Arial, Sans-serif">Created by Vectorstall</text><text x="0" y="90" fill="#000000" font-size="5px" font-weight="bold" font-family="'Helvetica Neue', Helvetica, Arial-Unicode, Arial, Sans-serif">from the Noun Project</text></svg>